<svg xmlns="http://www.w3.org/2000/svg" viewBox="0 0 303 41" width="303" height="41" role="img" aria-label="The Hindu BusinessLine logo"><path d="M0 0 C0.33 5.28 0.66 10.56 1 16 C2.98 15.01 4.96 14.02 7 13 C11.54 13 13.39 13.49 16.88 16.44 C20.27 20.53 20.34 23.26 20.28 28.46 C19.87 32.19 18.49 34.24 16 37 C11.77 40.26 8.08 40.34 2.94 40.12 C-1.26 39.99 -4.87 39.97 -9 41 C-9.33 29.12 -9.66 17.24 -10 5 C-10.66 4.67 -11.32 4.34 -12 4 C-12 3.34 -12 2.68 -12 2 C-10.76 1.67 -9.53 1.34 -8.25 1 C-7.55 0.81 -6.86 0.63 -6.14 0.44 C-4 -0 -4 -0 0 0 Z M0 20 C-0.43 23.08 -0.43 23.08 -0.44 26.81 C-0.46 28.04 -0.48 29.26 -0.5 30.52 C0.07 34.5 1.25 36.14 4 39 C5.87 38.75 5.87 38.75 8 38 C10.97 33.43 10.64 28.24 10 23 C8.19 19.81 8.19 19.81 6 18 C3 18 3 18 0 20 Z M84 1 C85 2 85 2 85.25 5.44 C85.17 6.61 85.09 7.79 85 9 C82 11 82 11 79.44 10.75 C77 10 77 10 75 8 C75.25 4.44 75.25 4.44 76 1 C78.88 -0.44 80.92 0.34 84 1 Z M201 0 C201 12.54 201 25.08 201 38 C203.31 38 205.62 38 208 38 C207.92 34.89 207.81 31.79 207.69 28.69 C207.66 27.81 207.64 26.93 207.62 26.02 C207.6 25.59 207.6 25.59 207.51 23.45 C207.49 22.67 207.46 21.89 207.43 21.08 C206.91 18.55 205.96 17.63 204 16 C205.6 15.49 207.21 15 208.81 14.5 C209.71 14.22 210.6 13.94 211.52 13.66 C214 13 214 13 217 13 C217 21.25 217 29.5 217 38 C217.99 38 218.98 38 220 38 C220 38.66 220 39.32 220 40 C209.77 40 199.54 40 189 40 C189 39.34 189 38.68 189 38 C189.99 38 190.98 38 192 38 C191.93 33.34 191.84 28.67 191.74 24.01 C191.7 22.42 191.68 20.84 191.65 19.25 C191.62 16.97 191.57 14.69 191.51 12.41 C191.51 12.06 191.51 12.06 191.49 10.26 C191.43 8.26 191.43 8.26 191 5 C190.01 4.34 189.02 3.68 188 3 C189.41 2.49 190.83 1.99 192.25 1.5 C193.04 1.22 193.83 0.94 194.64 0.66 C197 0 197 0 201 0 Z M213.12 0.31 C216 1 216 1 217 2 C217.24 7.53 217.24 7.53 216 10 C213.12 10.75 213.12 10.75 210 11 C209.01 10.34 208.02 9.68 207 9 C206.62 5.5 206.62 5.5 207 2 C210 0 210 0 213.12 0.31 Z M5 2 C17 2 29 2 41 2 C41 2.66 41 3.32 41 4 C41.66 3.67 42.32 3.34 43 3 C43 2.67 43 2.34 43 2 C45.97 2 48.94 2 52 2 C53 4 54 6 55 8 C40.15 8 25.3 8 10 8 C9.67 7.01 9.34 6.02 9 5 C9 5.99 9 6.98 9 8 C8.01 8 7.02 8 6 8 C5.67 6.02 5.34 4.04 5 2 Z M13 3 C14 7 14 7 14 7 Z M45 3 C45 4.32 45 5.64 45 7 C45.66 7 46.32 7 47 7 C47 5.68 47 4.36 47 3 C46.34 3 45.68 3 45 3 Z M49 3 C50 7 50 7 50 7 Z M41 5 C40.67 5.66 40.34 6.32 40 7 C40.66 7 41.32 7 42 7 C41.67 6.34 41.34 5.68 41 5 Z M53 2 C56.3 2 59.6 2 63 2 C63.38 3.66 63.71 5.32 64 7 C63 8 63 8 59.62 8.31 C56 8 56 8 54.06 6.12 C53 4 53 4 53 2 Z M58 3 C59 7 59 7 59 7 Z M61 3 C62 7 62 7 62 7 Z M64 2 C64.99 2 65.98 2 67 2 C67 3.65 67 5.3 67 7 C67.66 7.33 68.32 7.66 69 8 C67.68 8 66.36 8 65 8 C64.67 6.02 64.34 4.04 64 2 Z M68 2 C68.66 2 69.32 2 70 2 C69.67 2.66 69.34 3.32 69 4 C68.67 3.34 68.34 2.68 68 2 Z M85 13 C85 21.25 85 29.5 85 38 C87.31 38 89.62 38 92 38 C91.92 34.89 91.81 31.79 91.69 28.69 C91.66 27.81 91.64 26.93 91.62 26.02 C91.6 25.59 91.6 25.59 91.51 23.45 C91.49 22.67 91.46 21.89 91.43 21.08 C90.91 18.55 89.96 17.63 88 16 C89.6 15.49 91.21 15 92.81 14.5 C93.71 14.22 94.6 13.94 95.52 13.66 C98 13 98 13 101 13 C101.33 13.99 101.66 14.98 102 16 C102.68 15.5 103.36 15.01 104.06 14.5 C107.67 12.66 109.99 12.55 114 13 C116.62 14.83 116.97 15.91 118 19 C118.08 20.48 118.11 21.97 118.1 23.45 C118.09 24.3 118.09 25.14 118.09 26.02 C118.08 26.46 118.08 26.46 118.06 28.69 C118.06 29.58 118.05 30.47 118.05 31.39 C118.04 33.6 118.02 35.8 118 38 C118.99 38 119.98 38 121 38 C121 38.66 121 39.32 121 40 C116.05 40 111.1 40 106 40 C106 39.34 106 38.68 106 38 C106.99 38 107.98 38 109 38 C108.67 31.73 108.34 25.46 108 19 C105.69 19 103.38 19 101 19 C101 25.27 101 31.54 101 38 C101.99 38 102.98 38 104 38 C104 38.66 104 39.32 104 40 C93.77 40 83.54 40 73 40 C73 39.34 73 38.68 73 38 C73.99 38 74.98 38 76 38 C75.92 34.89 75.81 31.79 75.69 28.69 C75.66 27.81 75.64 26.93 75.62 26.02 C75.58 25.17 75.55 24.32 75.51 23.45 C75.49 22.67 75.46 21.89 75.43 21.08 C74.91 18.55 73.96 17.63 72 16 C73.6 15.49 75.21 15 76.81 14.5 C77.71 14.22 78.6 13.94 79.52 13.66 C82 13 82 13 85 13 Z M140 13 C143.19 15.19 143.19 15.19 145 18 C145 19.65 145 21.3 145 23 C139.72 23 134.44 23 129 23 C129.43 24.44 129.87 25.89 130.31 27.38 C130.43 27.78 130.43 27.78 131.05 29.84 C132 32 132 32 135 34 C139.16 33.7 141.5 33.33 145 31 C144.46 34.8 142.84 36.5 140 39 C136.29 40.86 132.05 40.45 128 40 C123.87 37.93 121.72 36.25 120 32 C119.22 26.42 119.72 21.7 123 17 C127.97 12.28 133.45 11.85 140 13 Z M133 14 C130 17.62 130 17.62 130 21 C132.31 21 134.62 21 137 21 C136.69 18.62 136.69 18.62 136 16 C135.01 15.34 134.02 14.68 133 14 Z M159.31 12.75 C159.94 12.77 159.94 12.77 163.11 12.86 C163.59 12.88 163.59 12.88 166 13 C166 15.97 166 18.94 166 22 C165.34 22 164.68 22 164 22 C163.4 21.03 162.8 20.06 162.19 19.06 C160 16 160 16 157.25 15.12 C156.51 15.08 155.76 15.04 155 15 C154.67 16.32 154.34 17.64 154 19 C156.27 20.37 158.53 21.74 160.86 23.02 C165.9 25.8 165.9 25.8 167 28 C167.46 32.1 167.38 34.33 165.31 37.94 C160.17 41.14 154.91 40.55 149 40 C148.01 39.67 147.02 39.34 146 39 C146 36.36 146 33.72 146 31 C146.66 31 147.32 31 148 31 C148.58 31.97 149.16 32.94 149.75 33.94 C152 37 152 37 155.25 37.88 C156.16 37.92 157.06 37.96 158 38 C158.33 36.35 158.66 34.7 159 33 C158.31 32.69 157.63 32.37 156.92 32.05 C156.02 31.62 155.12 31.19 154.19 30.75 C153.29 30.33 152.4 29.91 151.48 29.48 C148.84 27.9 147.53 26.66 146 24 C146 19.89 146.23 17.8 149.11 14.8 C152.76 12.53 155.05 12.59 159.31 12.75 Z M181.31 12.75 C181.94 12.77 181.94 12.77 185.11 12.86 C185.59 12.88 185.59 12.88 188 13 C188 15.97 188 18.94 188 22 C187.34 22 186.68 22 186 22 C185.4 21.03 184.8 20.06 184.19 19.06 C182 16 182 16 179.25 15.12 C178.51 15.08 177.76 15.04 177 15 C176.67 16.32 176.34 17.64 176 19 C178.27 20.37 180.53 21.74 182.86 23.02 C187.9 25.8 187.9 25.8 189 28 C189.58 34.27 189.58 34.27 187.12 37.38 C183.59 40.08 181.48 40.14 177.06 40.12 C176 40.13 174.94 40.13 173.85 40.13 C171 40 171 40 168 39 C168 36.36 168 33.72 168 31 C168.66 31 169.32 31 170 31 C170.58 31.97 171.16 32.94 171.75 33.94 C174 37 174 37 177.25 37.88 C178.16 37.92 179.06 37.96 180 38 C180.55 35.92 181 34.16 181 32 C180.7 31.92 180.7 31.92 179.17 31.52 C175.28 30.38 172.49 29.42 169.38 26.75 C167.49 22.98 167.76 21 169 17 C172.93 12.9 175.74 12.54 181.31 12.75 Z M233 13 C233.33 13.99 233.66 14.98 234 16 C234.68 15.5 235.36 15.01 236.06 14.5 C239.67 12.66 241.99 12.55 246 13 C248.62 14.83 248.97 15.91 250 19 C250.08 20.48 250.11 21.97 250.1 23.45 C250.09 24.3 250.09 25.14 250.09 26.02 C250.08 26.9 250.07 27.78 250.06 28.69 C250.06 29.58 250.05 30.47 250.05 31.39 C250.04 33.6 250.02 35.8 250 38 C250.99 38 251.98 38 253 38 C253 38.66 253 39.32 253 40 C248.05 40 243.1 40 238 40 C238 39.34 238 38.68 238 38 C238.99 38 239.98 38 241 38 C240.67 32.39 240.34 26.78 240 21 C237.69 20.34 235.38 19.68 233 19 C233 25.27 233 31.54 233 38 C233.99 38 234.98 38 236 38 C236 38.66 236 39.32 236 40 C231.05 40 226.1 40 221 40 C221 39.34 221 38.68 221 38 C221.99 38 222.98 38 224 38 C223.92 34.89 223.81 31.79 223.69 28.69 C223.66 27.81 223.64 26.93 223.62 26.02 C223.58 25.17 223.55 24.32 223.51 23.45 C223.49 22.67 223.46 21.89 223.43 21.08 C222.91 18.55 221.96 17.63 220 16 C221.6 15.49 223.21 15 224.81 14.5 C225.71 14.22 226.6 13.94 227.52 13.66 C230 13 230 13 233 13 Z M274.06 14.06 C276 16 276 16 277 23 C271.72 23 266.44 23 261 23 C261.43 24.44 261.87 25.89 262.31 27.38 C262.43 27.78 262.43 27.78 263.05 29.84 C264 32 264 32 267 34 C271.16 33.7 273.5 33.33 277 31 C276.77 34.16 275.73 35.31 273.62 37.75 C269.88 40.68 266.18 40.65 261.56 40.43 C258.06 39.84 256.31 38.68 254 36 C251.31 31.5 251.35 27.11 252 22 C256.54 12.74 264.66 10.8 274.06 14.06 Z M265 14 C263.5 15.25 263.5 15.25 262 17 C262 18.32 262 19.64 262 21 C264.31 21 266.62 21 269 21 C268.69 18.62 268.69 18.62 268 16 C267.01 15.34 266.02 14.68 265 14 Z M63.62 12.94 C64.81 12.95 66 12.96 67.23 12.96 C68.14 12.98 69.06 12.99 70 13 C70 15.97 70 18.94 70 22 C68.83 20.83 68.83 20.83 63 15 C60.88 15.38 60.88 15.38 59 16 C59 17.32 59 18.64 59 20 C59.69 20.31 60.37 20.63 61.08 20.95 C61.98 21.38 62.88 21.81 63.81 22.25 C64.71 22.67 65.6 23.09 66.52 23.52 C69.16 25.1 70.47 26.34 72 29 C72 33.13 71.78 35.2 68.86 38.2 C65.38 40.39 63.38 40.45 59.31 40.31 C58.17 40.29 57.04 40.26 55.86 40.24 C53 40 53 40 51 39 C51 38.34 51 37.68 51 37 C50.4 37.22 49.79 37.43 49.17 37.66 C48.37 37.93 47.57 38.21 46.75 38.5 C45.96 38.78 45.17 39.06 44.36 39.34 C42 40 42 40 38 40 C37.67 39.01 37.34 38.02 37 37 C36.32 37.5 35.64 37.99 34.94 38.5 C31.33 40.34 29.01 40.45 25 40 C23.31 38.8 23.31 38.8 22 37 C21.66 34.64 21.66 34.64 21.71 31.89 C21.72 30.91 21.73 29.93 21.74 28.92 C21.76 27.89 21.79 26.87 21.81 25.81 C21.82 25.29 21.82 25.29 21.85 22.67 C21.89 20.12 21.94 17.56 22 15 C20.68 14.67 19.36 14.34 18 14 C22.29 14 26.58 14 31 14 C31.33 20.27 31.66 26.54 32 33 C33.98 33.33 35.96 33.66 38 34 C38 27.73 38 21.46 38 15 C36.68 14.67 35.36 14.34 34 14 C38.29 14 42.58 14 47 14 C47 20.93 47 27.86 47 35 C48.32 35.33 49.64 35.66 51 36 C51 34.35 51 32.7 51 31 C53.33 33.33 55.67 35.67 58 38 C60.62 38.12 60.62 38.12 63 38 C63.33 36.68 63.66 35.36 64 34 C63.3 33.59 62.6 33.17 61.88 32.75 C53.89 27.89 53.89 27.89 51 25 C50.55 20.98 50.32 18.86 52.88 15.62 C56.61 12.77 58.95 12.89 63.62 12.94 Z M284.38 28.75 C288 29 288 29 289.94 30.19 C291.39 32.66 291.42 34.18 291 37 C289.88 38.81 289.88 38.81 288 40 C284.86 40.39 282.87 40.48 280.06 38.94 C278.37 35.85 279.26 33.33 280 30 C281 29 281 29 284.38 28.75 Z M281.25 31.5 C280.84 32 280.43 32.49 280 33 C280.69 35.44 280.69 35.44 282 38 C284.62 38.81 284.62 38.81 287 39 C287.99 37.35 288.98 35.7 290 34 C288.75 32 288.75 32 287 30 C283 30 283 30 281.25 31.5 Z M283 31 C284.68 31.29 286.34 31.62 288 32 C288 33.65 288 35.3 288 37 C284.25 38.12 284.25 38.12 282 37 C281.96 35.33 281.96 33.67 282 32 C282.33 31.67 282.66 31.34 283 31 Z " fill="#000000" transform="translate(12,0)"/></svg>
