<svg xmlns="http://www.w3.org/2000/svg" viewBox="0 0 525 59" width="525" height="59" role="img" aria-label="Business Today logo"><path d="M0 0 C2.91 0.08 3.78 0.15 6.12 2 C7.38 5.18 6.98 7.12 6.06 10.38 C4.06 12.38 4.06 12.38 0.69 12.75 C-2.94 12.38 -2.94 12.38 -5.44 10.75 C-6.94 8.38 -6.94 8.38 -6.81 5.25 C-5.46 0.8 -4.69 0.45 0 0 Z M251.06 0.38 C255.02 0.38 258.98 0.38 263.06 0.38 C263.06 16.21 263.06 32.05 263.06 48.38 C259.1 48.38 255.14 48.38 251.06 48.38 C250.73 47.72 250.4 47.05 250.06 46.38 C249.59 46.87 249.11 47.37 248.62 47.88 C244.81 50.11 241.38 49.91 237.06 49.38 C233.09 48.1 231.41 46.78 228.69 43.62 C225.51 37.38 225.81 28.53 227.79 21.95 C229.76 18.19 232.11 15.81 236.06 14.38 C245.74 13.49 245.74 13.49 250.06 16.38 C250.39 11.09 250.72 5.81 251.06 0.38 Z M240.06 26.38 C238.83 28.85 239.08 30.15 239.38 32.88 C239.41 33.27 239.41 33.27 239.61 35.28 C240.06 37.38 240.06 37.38 242.06 39.38 C247.31 39.93 247.31 39.93 249.73 38.13 C252.16 34.93 251.57 31.21 251.06 27.38 C249.88 24.81 249.88 24.81 248.06 23.38 C244.2 22.7 242.44 23.28 240.06 26.38 Z M-188.94 2.38 C-185.31 2.38 -181.68 2.38 -177.94 2.38 C-177.94 7 -177.94 11.62 -177.94 16.38 C-176.62 15.71 -175.3 15.05 -173.94 14.38 C-168.9 13.8 -164.37 13.7 -159.75 15.88 C-159.15 16.37 -158.55 16.87 -157.94 17.38 C-157.61 14.73 -157.28 12.09 -156.94 9.38 C-155.29 9.38 -153.64 9.38 -151.94 9.38 C-151.94 7.06 -151.94 4.75 -151.94 2.38 C-148.64 2.38 -145.34 2.38 -141.94 2.38 C-141.94 4.69 -141.94 7 -141.94 9.38 C-139.96 9.38 -137.98 9.38 -135.94 9.38 C-135.94 12.68 -135.94 15.98 -135.94 19.38 C-137.92 19.38 -139.9 19.38 -141.94 19.38 C-141.77 22.51 -141.77 22.51 -140.94 38.38 C-139.29 39.03 -137.64 39.7 -135.94 40.38 C-135.94 43.34 -135.94 46.31 -135.94 49.38 C-144.91 49.83 -144.91 49.83 -148.94 46.38 C-152.59 40.89 -152.29 35.84 -152.12 29.5 C-152.11 28.53 -152.1 27.55 -152.08 26.55 C-152.05 24.16 -152 21.77 -151.94 19.38 C-153.26 19.38 -154.58 19.38 -155.94 19.38 C-155.44 20.1 -154.95 20.82 -154.44 21.56 C-151.85 26.79 -152.21 32.72 -152.94 38.38 C-154.55 42.83 -156.82 45.52 -160.56 48.38 C-165.33 49.79 -170 49.97 -174.94 49.38 C-175.93 48.72 -176.92 48.05 -177.94 47.38 C-178.1 47.54 -178.1 47.54 -178.94 48.38 C-182.24 48.38 -185.54 48.38 -188.94 48.38 C-188.94 33.2 -188.94 18.01 -188.94 2.38 Z M-175.94 25.38 C-178.42 29.1 -178.4 30.97 -177.94 35.38 C-176.01 38.09 -174.6 39.12 -171.5 40.31 C-168.12 40.39 -166.61 39.39 -163.94 37.38 C-161.94 34.38 -161.94 34.38 -162.12 30.88 C-162.94 27.38 -162.94 27.38 -164.12 25.5 C-168.12 23.02 -172.06 22.6 -175.94 25.38 Z M-115.94 2.38 C-113.86 2.34 -113.86 2.34 -103.38 2.19 C-102.08 2.16 -100.79 2.13 -99.45 2.1 C-91.83 2.05 -86.43 2.33 -80.5 7.5 C-78.33 11.5 -78.1 14.92 -78.94 19.38 C-80.94 22.44 -80.94 22.44 -82.94 24.38 C-82.13 25.22 -81.33 26.07 -80.5 26.94 C-77.71 30.32 -76.94 32.91 -76.94 37.38 C-78.15 41.6 -79.2 43.77 -82.61 46.56 C-86.46 48.66 -88.73 48.84 -93.09 48.77 C-94.29 48.76 -95.49 48.75 -96.73 48.74 C-97.49 48.72 -97.49 48.72 -101.31 48.62 C-106.14 48.54 -110.97 48.46 -115.94 48.38 C-115.94 33.2 -115.94 18.01 -115.94 2.38 Z M-101.94 12.38 C-101.94 15.02 -101.94 17.66 -101.94 20.38 C-95.88 20.57 -95.88 20.57 -93.94 20.38 C-93.28 19.71 -92.62 19.05 -91.94 18.38 C-92.49 13.82 -92.49 13.82 -93.94 12.38 C-96.61 12.23 -99.26 12.33 -101.94 12.38 Z M-101.94 29.38 C-101.94 32.67 -101.94 35.98 -101.94 39.38 C-95.54 39.87 -95.54 39.87 -92.5 37.38 C-91.98 36.72 -91.47 36.05 -90.94 35.38 C-92.81 30.5 -92.81 30.5 -93.94 29.38 C-96.61 29.23 -99.26 29.33 -101.94 29.38 Z M156.06 2.38 C168.27 2.38 180.48 2.38 193.06 2.38 C193.06 6.01 193.06 9.64 193.06 13.38 C189.43 13.38 185.8 13.38 182.06 13.38 C182.06 24.93 182.06 36.48 182.06 48.38 C177.44 48.38 172.82 48.38 168.06 48.38 C168.06 36.83 168.06 25.27 168.06 13.38 C164.1 13.38 160.14 13.38 156.06 13.38 C156.06 9.74 156.06 6.11 156.06 2.38 Z M-126.94 3.38 C-126.28 3.38 -125.62 3.38 -124.94 3.38 C-124.94 18.23 -124.94 33.08 -124.94 48.38 C-125.6 48.38 -126.26 48.38 -126.94 48.38 C-126.94 33.52 -126.94 18.67 -126.94 3.38 Z M-74.94 14.38 C-70.98 14.38 -67.02 14.38 -62.94 14.38 C-62.61 22.62 -62.28 30.88 -61.94 39.38 C-55.94 38.38 -55.94 38.38 -54.94 37.38 C-54.78 35.67 -54.69 33.96 -54.62 32.25 C-54.58 31.21 -54.54 30.18 -54.49 29.11 C-54.45 28.02 -54.42 26.93 -54.38 25.81 C-54.33 24.72 -54.29 23.63 -54.24 22.5 C-54.14 19.79 -54.04 17.08 -53.94 14.38 C-49.65 14.38 -45.36 14.38 -40.94 14.38 C-40.94 25.59 -40.94 36.81 -40.94 48.38 C-46.27 48.38 -51.6 48.38 -56.94 48.38 C-57.27 48.54 -57.27 48.54 -58.94 49.38 C-63.23 49.81 -66.88 49.82 -70.88 48.12 C-73.14 46.21 -73.88 45.12 -74.94 42.38 C-75.16 39.35 -75.16 39.35 -75.13 35.86 C-75.13 34.61 -75.12 33.36 -75.11 32.07 C-75.1 30.77 -75.08 29.47 -75.06 28.12 C-75.05 26.81 -75.04 25.49 -75.04 24.13 C-75.01 20.88 -74.98 17.63 -74.94 14.38 Z M-24.06 14.12 C-22.85 14.1 -21.63 14.07 -20.38 14.05 C-16.68 14.4 -14.88 15.15 -11.94 17.38 C-9.79 20.34 -8.94 21.69 -8.94 25.38 C-12.9 25.38 -16.86 25.38 -20.94 25.38 C-21.27 24.71 -21.6 24.05 -21.94 23.38 C-23.26 23.38 -24.58 23.38 -25.94 23.38 C-26.27 24.04 -26.6 24.7 -26.94 25.38 C-26.13 25.48 -25.32 25.59 -24.49 25.71 C-23.42 25.87 -22.35 26.02 -21.25 26.19 C-20.72 26.26 -20.72 26.26 -18.05 26.64 C-14.16 27.56 -11.06 28.87 -8.62 32.12 C-7.18 36.86 -7.38 40.27 -9.62 44.69 C-12.76 48.33 -15.3 49.22 -20.06 49.68 C-31.4 49.72 -31.4 49.72 -35.94 46.38 C-38.69 43.53 -39.25 41.2 -39.94 37.38 C-38 37.29 -36.06 37.24 -34.12 37.19 C-33.05 37.15 -31.97 37.12 -30.86 37.08 C-27.58 37.41 -26.99 37.96 -24.94 40.38 C-22.75 40.06 -22.75 40.06 -20.94 39.38 C-23.49 36.82 -25.3 36.76 -28.81 36.06 C-32.56 35.15 -34.64 34.61 -37.69 32.19 C-39.33 28.49 -39.84 25.3 -38.94 21.38 C-35.31 14.95 -31.04 14.21 -24.06 14.12 Z M-5.94 14.38 C-1.98 14.38 1.98 14.38 6.06 14.38 C6.06 25.59 6.06 36.81 6.06 48.38 C2.1 48.38 -1.86 48.38 -5.94 48.38 C-5.94 37.16 -5.94 25.93 -5.94 14.38 Z M13.79 14.28 C14.34 14.28 14.34 14.28 17.12 14.31 C17.68 14.32 17.68 14.32 20.47 14.34 C21.33 14.35 22.18 14.36 23.06 14.38 C23.39 15.04 23.72 15.7 24.06 16.38 C24.61 16.05 25.16 15.73 25.72 15.4 C30 13.52 34.49 13.7 39.06 14.38 C42.73 17.01 44.29 19 45.06 23.38 C45.14 25.33 45.17 27.28 45.16 29.23 C45.16 30.35 45.15 31.46 45.15 32.61 C45.15 33.19 45.15 33.19 45.12 36.12 C45.12 37.3 45.12 38.47 45.11 39.68 C45.1 42.58 45.08 45.48 45.06 48.38 C40.77 48.38 36.48 48.38 32.06 48.38 C31.9 44.58 31.9 44.58 31.06 25.38 C29.08 25.38 27.1 25.38 25.06 25.38 C23.86 27.78 23.86 29.48 23.75 32.16 C23.73 32.63 23.73 32.63 23.62 35.02 C23.6 35.51 23.6 35.51 23.5 38 C23.46 38.99 23.41 39.99 23.37 41.01 C23.26 43.46 23.16 45.92 23.06 48.38 C18.77 48.38 14.48 48.38 10.06 48.38 C10.04 43.69 10.02 39.01 10.01 34.33 C10 32.74 10 31.14 9.99 29.55 C9.97 27.26 9.97 24.98 9.96 22.69 C9.96 21.97 9.95 21.26 9.95 20.52 C9.95 18.8 10 17.09 10.06 15.38 C11.06 14.38 11.06 14.38 13.79 14.28 Z M72.06 14.38 C74.8 15.38 75.9 16.33 78.06 18.38 C78.36 18.63 78.36 18.63 79.88 19.94 C81.06 21.38 81.06 21.38 82.06 24.38 C82.43 23.47 82.81 22.56 83.19 21.62 C85.41 17.77 87.18 16.5 91.06 14.38 C96.69 13.5 102.97 13.13 108.34 15.29 C111.14 17.41 112.05 19.33 112.94 22.69 C112.98 23.57 113.02 24.46 113.06 25.38 C111.27 25.43 109.48 25.47 107.69 25.5 C106.69 25.52 105.69 25.55 104.66 25.57 C102.06 25.38 102.06 25.38 100.06 23.38 C98.74 23.38 97.42 23.38 96.06 23.38 C95.73 24.04 95.4 24.7 95.06 25.38 C95.86 25.47 96.66 25.57 97.48 25.67 C108.85 27.28 108.85 27.28 113.06 31.38 C113.94 34.62 113.94 34.62 114.06 37.38 C114.89 37.34 115.73 37.31 116.58 37.27 C117.13 37.26 117.13 37.26 119.88 37.19 C120.95 37.15 122.03 37.12 123.14 37.08 C126.49 37.42 126.9 38.01 129.06 40.38 C130.38 40.38 131.7 40.38 133.06 40.38 C133.06 39.39 133.06 38.39 133.06 37.38 C132.66 37.32 132.66 37.32 130.61 37.04 C130.08 36.96 130.08 36.96 127.38 36.56 C126.32 36.41 125.26 36.26 124.18 36.11 C120.88 35.33 118.74 34.44 116.06 32.38 C113.96 28.2 113.74 24.41 115.12 20 C117.3 17.05 118.76 15.95 122.06 14.38 C125.66 13.98 125.66 13.98 129.56 14 C130.85 13.99 132.14 13.98 133.47 13.98 C137.21 14.39 139.09 15.13 142.06 17.38 C144.1 20.38 144.06 21.57 144.06 25.38 C142.27 25.43 140.48 25.47 138.69 25.5 C138.19 25.51 138.19 25.51 135.66 25.57 C133.06 25.38 133.06 25.38 131.06 23.38 C129.74 23.38 128.42 23.38 127.06 23.38 C126.73 24.04 126.4 24.7 126.06 25.38 C126.87 25.48 127.68 25.59 128.51 25.71 C129.58 25.87 130.65 26.02 131.75 26.19 C132.28 26.26 132.28 26.26 134.95 26.64 C139.18 27.64 142.01 29.32 145.06 32.38 C145.79 37.12 145.75 41.16 143.38 45.38 C138.19 49.86 132.84 49.8 126.24 49.7 C121.8 49.25 119.57 48.1 116.06 45.38 C115.73 44.88 115.73 44.88 114.06 42.38 C113.51 43.16 112.95 43.94 112.38 44.75 C109.22 48.33 106.66 49.22 101.94 49.68 C90.56 49.72 90.56 49.72 86.06 46.38 C83.69 43.69 83.69 43.69 82.06 41.38 C81.34 42.32 80.62 43.27 79.88 44.25 C77.63 47.2 75.6 48.3 72.06 49.38 C65.34 50.12 58.57 50.31 52.65 46.68 C48.56 43.32 47.3 40.34 46.69 35.24 C46.5 30.18 46.56 26.43 48.75 21.81 C56.06 14.11 61.63 13.5 72.06 14.38 Z M61.25 23.75 C60.06 25.38 60.06 25.38 60.06 27.38 C63.36 27.38 66.66 27.38 70.06 27.38 C69.06 23.38 69.06 23.38 68.06 22.38 C65.14 22.07 63.64 21.94 61.25 23.75 Z M83.06 28.38 C83.06 30.36 83.06 32.34 83.06 34.38 C75.14 34.38 67.22 34.38 59.06 34.38 C61.06 39.38 61.06 39.38 62.06 40.38 C65.5 40.56 65.5 40.56 69.06 40.38 C69.72 39.72 70.38 39.05 71.06 38.38 C74.86 37.92 78.68 38.05 82.5 38.06 C83.56 38.05 84.63 38.03 85.72 38.01 C86.23 38.01 86.23 38.01 88.81 38.01 C89.74 38.01 90.68 38.01 91.64 38 C94.49 38.44 95.19 39.28 97.06 41.38 C99.25 41.06 99.25 41.06 101.06 40.38 C101.06 39.38 101.06 38.39 101.06 37.38 C100.1 37.14 99.13 36.91 98.14 36.68 C97.51 36.51 97.51 36.51 94.31 35.69 C93.06 35.37 91.81 35.06 90.52 34.74 C86.69 33.23 85.29 31.77 83.06 28.38 Z M218.69 16.06 C223.74 20.98 226.19 24.5 226.38 31.62 C226.31 37.16 225.45 40 222.06 44.38 C215.26 49.65 209.43 49.97 201.06 49.38 C195.76 47.64 193.31 44.73 190.06 40.38 C187.85 35.96 188.64 30.18 189.06 25.38 C191.2 20.87 193.98 18.2 198.06 15.38 C204.55 13.21 212.5 13.18 218.69 16.06 Z M203.31 24.44 C201.42 27.37 201.24 29.92 201.06 33.38 C202.1 37.26 202.65 38.1 206.06 40.38 C209.38 40.05 210.67 39.77 213.06 37.38 C214.12 32.7 214.38 29.64 212.06 25.38 C210.06 23.38 210.06 23.38 207.62 23.06 C205.06 23.38 205.06 23.38 203.31 24.44 Z M283.44 14.12 C284.09 14.11 284.09 14.11 287.4 14.05 C291.34 14.4 293.09 14.79 296.06 17.38 C299.88 23.55 299.41 29.73 299.25 36.81 C299.24 37.37 299.24 37.37 299.21 40.19 C299.17 42.92 299.12 45.65 299.06 48.38 C294.06 48.38 289.06 48.38 284.06 48.38 C283.73 48.54 283.73 48.54 282.06 49.38 C277.57 49.79 273.39 49.79 269.06 48.44 C265.95 45.23 265.24 41.78 265.06 37.38 C266.2 33.52 267.29 31.95 270.5 29.56 C275.61 27.86 280.7 27.63 286.06 27.38 C285.73 26.38 285.4 25.39 285.06 24.38 C284.07 24.05 283.08 23.71 282.06 23.38 C281.88 23.62 281.88 23.62 280.95 24.86 C278.25 27.02 276.28 26.67 272.88 26.56 C271.79 26.54 270.7 26.51 269.58 26.48 C269.17 26.46 269.17 26.46 267.06 26.38 C267.34 22.4 267.83 20.65 270.44 17.56 C274.66 14.05 278.09 14.19 283.44 14.12 Z M279.06 35.38 C278.73 37.02 278.4 38.67 278.06 40.38 C279.81 41.06 279.81 41.06 282.06 41.38 C284.31 40.12 284.31 40.12 286.06 38.38 C286.06 37.38 286.06 36.39 286.06 35.38 C283.75 35.38 281.44 35.38 279.06 35.38 Z M298.06 14.38 C302.35 14.38 306.64 14.38 311.06 14.38 C313.58 19.32 315.93 24.26 318.06 29.38 C318.41 28.38 318.76 27.38 319.12 26.35 C319.58 25.04 320.04 23.74 320.5 22.44 C320.73 21.78 320.96 21.12 321.2 20.44 C322.95 15.49 322.95 15.49 324.06 14.38 C326.08 14.3 328.1 14.29 330.12 14.31 C330.68 14.32 330.68 14.32 333.47 14.34 C334.33 14.35 335.18 14.36 336.06 14.38 C334.15 20.29 332.06 26.1 329.74 31.88 C329.44 32.64 329.13 33.4 328.82 34.18 C328.18 35.77 327.55 37.36 326.91 38.95 C325.93 41.4 324.95 43.84 323.98 46.29 C323.36 47.84 322.74 49.39 322.12 50.94 C321.83 51.67 321.53 52.4 321.23 53.16 C319.18 58.26 319.18 58.26 318.06 59.38 C316.04 59.45 314.02 59.46 312 59.44 C311.45 59.43 311.45 59.43 308.65 59.41 C307.8 59.4 306.94 59.39 306.06 59.38 C306.27 58.72 306.47 58.07 306.68 57.4 C306.95 56.52 307.22 55.65 307.5 54.75 C307.77 53.89 308.03 53.03 308.31 52.15 C309.96 46.06 310.27 42.8 307.54 36.95 C306.99 35.76 306.45 34.57 305.88 33.35 C305.3 32.11 304.71 30.87 304.12 29.62 C302.99 27.17 301.85 24.72 300.72 22.27 C300.21 21.18 299.7 20.1 299.18 18.99 C298.06 16.38 298.06 16.38 298.06 14.38 Z " fill="#000000" transform="translate(188.9375,-0.375)"/></svg>
