<svg xmlns="http://www.w3.org/2000/svg" viewBox="0 0 121.3 28.02" role="img" aria-labelledby="title"><title>Goodreturns</title><g id="good"><g><path fill="#000" d="M7.8,12.97c0,.85-.04,1.47-.12,1.86s-.22.73-.41,1.01c-.25.37-.62.66-1.12.85-.5.19-1.1.29-1.8.29-.96,0-1.69-.19-2.19-.56-.51-.37-.76-.91-.78-1.63h2.21c.02.19.1.34.24.44.14.11.34.16.59.16.42,0,.72-.13.89-.39.17-.26.25-.73.25-1.42v-.67c-.19.36-.43.63-.74.81-.3.18-.67.27-1.09.27-.95,0-1.61-.36-1.99-1.08-.38-.72-.57-2.07-.57-4.05s.19-3.19.57-3.93c.38-.74,1.04-1.11,1.97-1.11.47,0,.87.11,1.2.32.33.21.58.53.77.95v-1.01h2.12v8.88ZM4.46,5.67c-.39,0-.66.19-.81.58-.15.39-.22,1.33-.22,2.82,0,1.31.07,2.14.22,2.5.15.36.42.54.81.54.44,0,.75-.21.91-.63.16-.42.25-1.48.25-3.19,0-1.07-.08-1.77-.25-2.11-.16-.34-.47-.51-.91-.51Z"/><path fill="#000" d="M9.45,8.92c0-1.95.25-3.28.75-4s1.38-1.08,2.64-1.08,2.15.36,2.65,1.08.75,2.06.75,4-.25,3.28-.75,4c-.5.72-1.38,1.08-2.65,1.08s-2.14-.36-2.64-1.08c-.5-.72-.75-2.05-.75-4ZM11.73,8.82v.22c0,1.5.08,2.41.22,2.74.15.33.44.5.87.5s.75-.16.9-.47c.16-.31.23-1.13.23-2.45v-.94c0-1.26-.08-2.06-.24-2.38-.16-.32-.45-.49-.88-.49s-.71.15-.87.45-.24,1.01-.24,2.15v.67Z"/><path fill="#000" d="M17.61,8.92c0-1.95.25-3.28.75-4s1.38-1.08,2.64-1.08,2.15.36,2.65,1.08.75,2.06.75,4-.25,3.28-.75,4c-.5.72-1.38,1.08-2.65,1.08s-2.14-.36-2.64-1.08c-.5-.72-.75-2.05-.75-4ZM19.9,8.82v.22c0,1.5.08,2.41.22,2.74.15.33.44.5.87.5s.75-.16.9-.47c.16-.31.23-1.13.23-2.45v-.94c0-1.26-.08-2.06-.24-2.38-.16-.32-.45-.49-.88-.49s-.71.15-.87.45-.24,1.01-.24,2.15v.67Z"/><path fill="#000" d="M30.31,12.73c-.18.42-.44.73-.77.95-.33.21-.73.32-1.2.32-.93,0-1.58-.37-1.97-1.11-.38-.74-.57-2.05-.57-3.93s.19-3.29.56-4.02,1.02-1.11,1.93-1.11c.46,0,.84.09,1.15.27s.56.45.74.81V.9h2.24v12.84h-2.12v-1.01ZM28.06,8.77c0,1.49.07,2.43.22,2.81.14.38.41.57.81.57.44,0,.75-.17.91-.51.16-.34.25-1.04.25-2.11,0-1.71-.08-2.77-.25-3.19-.16-.42-.47-.63-.91-.63-.39,0-.66.18-.81.55-.15.36-.22,1.2-.22,2.51Z"/></g></g><g id="_x60_"><path fill="#000" d="M36.44.87h16.86v.04c-.99,1.53-1.55,2.35-1.68,2.45h-4.51c.62.72,1.04,1.61,1.26,2.65h4.8c.06.01.09.04.09.07-1.08,1.61-1.62,2.42-1.65,2.42h-3.12c-.07.83-.47,1.83-1.19,3-.96,1.18-1.88,1.95-2.75,2.3-1.64.78-3.2,1.17-4.7,1.17v.04c0,.12.37.6,1.1,1.45l8.33,10.05v.47s-.03.07-.09.07h-3.66c-6.59-7.68-9.89-11.53-9.89-11.57v-2.33l.04-.09c.58.08,1.27.12,2.05.12,3.69,0,5.99-1.2,6.89-3.59.14-.35.21-.71.21-1.09h-10.03s-.07-.02-.07-.07c1.11-1.61,1.68-2.42,1.7-2.42h7.96v-.04c-.46-.92-1.34-1.64-2.65-2.16-.94-.3-1.78-.46-2.52-.46h-4.45v-.09c1.08-1.6,1.63-2.4,1.67-2.4Z"/></g><g id="eturns"><g><path fill="#000" d="M60.73,15.28h3.59c-.34,1.25-1,2.22-1.98,2.91s-2.2,1.03-3.66,1.03c-1.77,0-3.17-.54-4.2-1.61s-1.54-2.54-1.54-4.39.52-3.39,1.55-4.49,2.43-1.65,4.19-1.65,3.24.56,4.27,1.68,1.55,2.67,1.55,4.64c0,.18,0,.32,0,.41s0,.18-.02.25h-7.72c0,.81.17,1.42.52,1.84s.86.64,1.53.64c.5,0,.91-.11,1.23-.32s.55-.52.68-.93ZM56.67,11.95h4.25c-.01-.75-.21-1.32-.58-1.73s-.89-.62-1.54-.62c-.62,0-1.11.2-1.48.61s-.59.99-.66,1.74Z"/><path fill="#000" d="M65.27,9.72v-2.26h1.53v-3.23h3.74v3.23h1.91v2.26h-1.91v4.95c0,.76.1,1.26.29,1.5s.56.37,1.1.37c.12,0,.21,0,.28,0s.13,0,.19-.02v2.38c-.39.08-.78.14-1.15.18s-.74.06-1.09.06c-1.3,0-2.18-.32-2.66-.95s-.71-1.98-.71-4.05v-4.42h-1.53Z"/><path fill="#000" d="M85.01,7.46v11.42h-3.65v-1.58c-.45.64-.95,1.11-1.52,1.41s-1.21.45-1.95.45c-1.26,0-2.21-.32-2.85-.97s-.96-1.61-.96-2.88v-7.84h3.74v6.38c0,.94.12,1.58.35,1.94.23.35.64.53,1.22.53.65,0,1.13-.22,1.42-.65s.45-1.13.45-2.11v-6.1h3.74Z"/><path fill="#000" d="M87.62,18.87V7.46h3.59v2c.4-.78.9-1.36,1.49-1.72s1.35-.55,2.27-.56v3.7c-.16-.02-.32-.04-.48-.05s-.31-.02-.45-.02c-.57,0-1.05.09-1.42.26s-.67.44-.9.79c-.14.24-.24.58-.3,1.02s-.09,1.16-.09,2.16v3.83h-3.72Z"/><path fill="#000" d="M96.69,18.87V7.46h3.65v1.56c.39-.62.87-1.09,1.44-1.39s1.24-.46,2.03-.46c1.34,0,2.31.33,2.9,1s.9,1.76.9,3.27v7.42h-3.74v-5.74c0-1.34-.11-2.2-.34-2.57s-.64-.55-1.24-.55c-.66,0-1.14.22-1.44.66s-.45,1.14-.45,2.1v6.11h-3.72Z"/><path fill="#000" d="M109.6,15.39h3.74c.04.5.23.88.56,1.13s.81.38,1.44.38c.53,0,.94-.1,1.24-.3s.45-.48.45-.82c0-.44-.59-.81-1.76-1.11-.63-.16-1.14-.3-1.52-.43-1.43-.47-2.4-.96-2.93-1.46s-.79-1.17-.79-2c0-1.16.44-2.06,1.32-2.73s2.1-.99,3.64-.99c1.65,0,2.93.28,3.82.85s1.4,1.41,1.51,2.53h-3.59c-.08-.39-.25-.67-.53-.86s-.65-.28-1.13-.28c-.45,0-.79.09-1.03.26s-.36.41-.36.73c0,.45.61.84,1.83,1.17.29.08.52.14.68.19,1.13.33,1.92.58,2.36.74s.76.32.96.47c.41.3.72.65.91,1.05s.29.86.29,1.4c0,1.24-.48,2.21-1.45,2.91s-2.31,1.05-4.04,1.05-3.03-.34-4.01-1.01-1.52-1.62-1.62-2.85Z"/></g></g></svg>
