<svg xmlns="http://www.w3.org/2000/svg" viewBox="0 0 399 48" width="399" height="48" role="img" aria-label="Hindustan Times logo"><path d="M0 0 C1.98 1.65 3.96 3.3 6 5 C4.55 8.83 2.57 10.12 -1 12 C-2.65 10.35 -4.3 8.7 -6 7 C-4.61 3.63 -3.02 2.01 0 0 Z M-280 0 C-278.34 3.33 -279.18 7 -279.44 10.62 C-279.49 11.43 -279.54 12.23 -279.6 13.05 C-279.73 15.04 -279.86 17.02 -280 19 C-278.02 19 -276.04 19 -274 19 C-274.12 18.21 -274.23 17.43 -274.35 16.62 C-274.65 13.18 -274.72 10.39 -274 7 C-271.06 3.89 -267.8 1.93 -264 0 C-262 2 -262 2 -261.86 5.81 C-261.91 7.45 -261.96 9.09 -262.02 10.73 C-262.04 11.16 -262.04 11.16 -262.1 13.34 C-262.18 16.1 -262.28 18.86 -262.38 21.62 C-262.43 23.49 -262.49 25.36 -262.55 27.23 C-262.69 31.82 -262.84 36.41 -263 41 C-262.38 40.81 -261.76 40.63 -261.12 40.44 C-259 40 -259 40 -257 41 C-257.17 37.53 -257.17 37.53 -258 20 C-258.99 20 -259.98 20 -261 20 C-261 19.34 -261 18.68 -261 18 C-259.39 16.64 -259.39 16.64 -257.25 15.25 C-256.55 14.78 -255.86 14.31 -255.14 13.83 C-253 13 -253 13 -250.86 13.67 C-249 15 -249 15 -247 18 C-246.68 20.45 -246.68 20.45 -246.59 23.32 C-246.57 23.84 -246.57 23.84 -246.47 26.44 C-246.44 27.51 -246.41 28.58 -246.38 29.69 C-246.36 30.23 -246.36 30.23 -246.26 32.97 C-246.16 35.65 -246.08 38.32 -246 41 C-244.35 41 -242.7 41 -241 41 C-241.16 37.53 -241.16 37.53 -242 20 C-242.99 20.33 -243.98 20.66 -245 21 C-245 20.01 -245 19.02 -245 18 C-243.39 16.54 -243.39 16.54 -241.25 15.19 C-240.55 14.73 -239.86 14.27 -239.14 13.79 C-237 13 -237 13 -234.86 13.74 C-233 15 -233 15 -231 17 C-229.95 16.3 -228.9 15.6 -227.81 14.88 C-224.4 12.92 -224.4 12.92 -221.19 13.56 C-219 15 -219 15 -217 18 C-216.68 20.45 -216.68 20.45 -216.59 23.32 C-216.55 24.35 -216.51 25.38 -216.47 26.44 C-216.44 27.51 -216.41 28.58 -216.38 29.69 C-216.34 30.77 -216.3 31.85 -216.26 32.97 C-216.16 35.65 -216.08 38.32 -216 41 C-215.34 41.16 -215.34 41.16 -212 42 C-214.64 43.98 -217.28 45.96 -220 48 C-222 47 -224 46 -226 45 C-226 44.34 -226 43.68 -226 43 C-226.59 43.38 -227.18 43.77 -227.79 44.16 C-234.31 48.14 -234.31 48.14 -237.81 47.44 C-238.53 46.96 -239.26 46.49 -240 46 C-240.76 45.63 -241.53 45.26 -242.31 44.88 C-242.87 44.59 -243.43 44.3 -244 44 C-244.89 44.7 -245.77 45.4 -246.69 46.12 C-250 48 -250 48 -252.62 47.44 C-254.87 46.08 -256.96 44.66 -259 43 C-259.45 43.38 -259.89 43.77 -260.36 44.16 C-262.19 45.63 -263.93 46.9 -266 48 C-269.6 47.35 -271.69 45.78 -274 43 C-274.34 41.1 -274.34 41.1 -274.29 38.99 C-274.28 38.23 -274.27 37.47 -274.26 36.69 C-274.24 35.91 -274.21 35.12 -274.19 34.31 C-274.17 33.52 -274.16 32.72 -274.15 31.9 C-274.11 29.93 -274.06 27.97 -274 26 C-275.98 26 -277.96 26 -280 26 C-280 31.94 -280 37.88 -280 44 C-287.88 48.5 -287.88 48.5 -293.94 48.25 C-295.08 48.21 -296.22 48.18 -297.4 48.14 C-298.26 48.09 -299.12 48.05 -300 48 C-299.36 46.97 -298.72 45.94 -298.06 44.88 C-295.04 38.95 -295.18 32.53 -295 26 C-297.64 26 -300.28 26 -303 26 C-302.24 24.83 -301.47 23.66 -300.69 22.5 C-300.26 21.85 -299.83 21.2 -299.39 20.53 C-298.93 20.03 -298.47 19.52 -298 19 C-297.01 19 -296.02 19 -295 19 C-294 12.37 -294 12.37 -294 9 C-297.72 8.8 -298.77 8.85 -302 11 C-302.36 4.62 -302.36 4.62 -301 2.28 C-297.82 0.24 -294.46 0.69 -290.81 0.81 C-290.06 0.83 -289.31 0.84 -288.54 0.85 C-286.69 0.89 -284.85 0.94 -283 1 C-283.16 1.69 -283.32 2.37 -283.49 3.08 C-284.06 6.33 -284.16 9.4 -284.21 12.69 C-284.23 13.33 -284.23 13.33 -284.3 16.55 C-284.34 18.56 -284.38 20.57 -284.4 22.58 C-284.43 24.54 -284.48 26.49 -284.52 28.44 C-284.54 29.6 -284.56 30.77 -284.58 31.96 C-285.03 35.22 -285.79 36.62 -288 39 C-286.35 39.66 -284.7 40.32 -283 41 C-283.02 39.97 -283.03 38.94 -283.05 37.88 C-283.1 34.05 -283.14 30.21 -283.16 26.38 C-283.18 24.72 -283.2 23.06 -283.23 21.41 C-283.26 19.02 -283.28 16.63 -283.29 14.24 C-283.31 13.51 -283.32 12.77 -283.34 12.02 C-283.34 7.26 -282.43 4.08 -280 0 Z M-229 19 C-229.33 19.16 -229.33 19.16 -231 20 C-231 27.26 -231 34.52 -231 42 C-229.68 41.67 -228.36 41.34 -227 41 C-227 34.07 -227 27.14 -227 20 C-227.66 19.67 -228.32 19.34 -229 19 Z M-252 0 C-249.5 2.31 -249.5 2.31 -247 5 C-247 5.99 -247 6.98 -247 8 C-249.31 9.32 -251.62 10.64 -254 12 C-255.65 10.35 -257.3 8.7 -259 7 C-257.67 3 -255.5 2.16 -252 0 Z M-211 1 C-206.89 2.85 -203.28 5.42 -199.56 7.94 C-198.25 8.82 -196.94 9.71 -195.63 10.59 C-195.05 10.98 -194.48 11.37 -193.88 11.77 C-192 13 -192 13 -189.3 14.29 C-187 16 -187 16 -186.43 18.64 C-186.46 19.67 -186.48 20.7 -186.51 21.76 C-186.53 22.88 -186.54 24 -186.56 25.15 C-186.6 26.32 -186.64 27.48 -186.69 28.69 C-186.71 29.87 -186.73 31.05 -186.76 32.26 C-186.81 35.17 -186.9 38.09 -187 41 C-185.68 41 -184.36 41 -183 41 C-183 41.66 -183 42.32 -183 43 C-184.61 44.36 -184.61 44.36 -186.75 45.75 C-187.45 46.22 -188.14 46.69 -188.86 47.17 C-191 48 -191 48 -193.08 47.27 C-194.72 46.18 -196.36 45.09 -198 44 C-198.89 44.7 -199.77 45.4 -200.69 46.12 C-204 48 -204 48 -206.75 47.44 C-209 46 -209 46 -211 43 C-211.23 40.46 -211.23 40.46 -211.2 37.46 C-211.19 36.38 -211.18 35.31 -211.18 34.21 C-211.17 33.65 -211.17 33.65 -211.12 30.81 C-211.12 29.68 -211.11 28.55 -211.1 27.38 C-211.07 24.59 -211.04 21.79 -211 19 C-209.02 18.34 -207.04 17.68 -205 17 C-205 16.34 -205 15.68 -205 15 C-205.8 14.71 -206.61 14.42 -207.44 14.12 C-210 13 -210 13 -211 11 C-211.07 9.29 -211.08 7.58 -211.06 5.88 C-211.05 4.96 -211.04 4.05 -211.04 3.12 C-211.02 2.42 -211.01 1.72 -211 1 Z M-201 18 C-202.4 22.19 -202.22 26.17 -202.25 30.56 C-202.27 31.44 -202.29 32.31 -202.31 33.22 C-202.32 34.05 -202.32 34.89 -202.33 35.75 C-202.34 36.52 -202.35 37.29 -202.36 38.08 C-202.24 38.71 -202.12 39.35 -202 40 C-201.5 40.33 -201.5 40.33 -199 42 C-198.34 41.67 -197.68 41.34 -197 41 C-197 34.07 -197 27.14 -197 20 C-198.32 19.34 -199.64 18.68 -201 18 Z M-196 19 C-196 26.59 -196 34.18 -196 42 C-195.67 42 -195.34 42 -195 42 C-195 34.41 -195 26.82 -195 19 C-195.33 19 -195.66 19 -196 19 Z M-210 21 C-210 27.93 -210 34.86 -210 42 C-209.67 42 -209.34 42 -209 42 C-209 35.07 -209 28.14 -209 21 C-209.33 21 -209.66 21 -210 21 Z M-23.95 0.74 C-17.97 1.27 -11.81 1.7 -6 0 C-6.27 3.9 -6.81 5.76 -9.25 8.88 C-12 11 -12 11 -17 11 C-16.67 19.91 -16.34 28.82 -16 38 C-10 33 -10 33 -9 31 C-8.34 31 -7.68 31 -7 31 C-7.31 32.46 -7.62 33.92 -7.94 35.38 C-8.11 36.19 -8.29 37 -8.46 37.84 C-9 40 -9 40 -10 42 C-10.66 42 -11.32 42 -12 42 C-12.33 42.99 -12.66 43.98 -13 45 C-19.36 49 -25.71 48.88 -33 48 C-38.76 45.93 -42.09 42.36 -45 37 C-46.66 32.02 -46.6 27.7 -44.88 22.81 C-42.22 18.83 -39.27 15.78 -34.62 14.19 C-34.09 14.13 -33.55 14.06 -33 14 C-33.29 14.64 -33.58 15.28 -33.88 15.94 C-37.88 26.84 -37.88 26.84 -35.69 31.94 C-35.13 32.95 -34.57 33.96 -34 35 C-33.67 35.66 -33.34 36.32 -33 37 C-32.01 37.33 -31.02 37.66 -30 38 C-30.05 37.26 -30.1 36.52 -30.16 35.75 C-30.37 32.4 -30.56 29.04 -30.75 25.69 C-30.83 24.52 -30.91 23.35 -31 22.15 C-31.05 21.03 -31.11 19.91 -31.17 18.76 C-31.23 17.73 -31.3 16.7 -31.36 15.64 C-31 13 -31 13 -28.99 11.14 C-28.33 10.76 -27.68 10.39 -27 10 C-36.52 9.44 -36.52 9.44 -41 13 C-42.81 14.69 -42.81 14.69 -44 16 C-45.34 9.79 -45.34 9.79 -43.81 6.25 C-41.27 3.09 -39.37 1.4 -35.44 0.25 C-31.51 -0.04 -27.86 0.33 -23.95 0.74 Z M-21 11 C-21 19.58 -21 28.16 -21 37 C-23.31 37.66 -25.62 38.32 -28 39 C-28 39.33 -28 39.66 -28 40 C-25.03 40 -22.06 40 -19 40 C-19 30.43 -19 20.86 -19 11 C-19.66 11 -20.32 11 -21 11 Z M-178 13 C-174 15 -174 15 -172 17 C-171.68 19.34 -171.68 19.34 -171.59 22.23 C-171.55 23.26 -171.51 24.29 -171.47 25.35 C-171.44 26.43 -171.41 27.51 -171.38 28.62 C-171.34 29.71 -171.3 30.8 -171.26 31.92 C-171.16 34.61 -171.08 37.31 -171 40 C-169.68 40.33 -168.36 40.66 -167 41 C-167.33 34.07 -167.66 27.14 -168 20 C-168.99 20 -169.98 20 -171 20 C-171 19.34 -171 18.68 -171 18 C-169.39 16.64 -169.39 16.64 -167.25 15.25 C-166.55 14.78 -165.86 14.31 -165.14 13.83 C-163 13 -163 13 -160.92 13.67 C-158.95 15.04 -157.49 16.11 -156 18 C-155.75 20.45 -155.75 20.45 -155.93 23.32 C-155.98 24.35 -156.04 25.38 -156.09 26.44 C-156.16 27.51 -156.24 28.58 -156.31 29.69 C-156.34 30.23 -156.34 30.23 -156.5 32.97 C-156.65 35.65 -156.82 38.32 -157 41 C-152.25 40.25 -152.25 40.25 -150 38 C-148.12 37.99 -148.12 37.99 -146 38.31 C-145.3 38.41 -144.6 38.51 -143.88 38.61 C-142 39 -142 39 -140 40 C-140 38.02 -140 36.04 -140 34 C-140.66 34.41 -141.32 34.83 -142 35.25 C-146.62 36.41 -148.95 34.33 -153 32 C-153 27.71 -153 23.42 -153 19 C-140.44 12.22 -140.44 12.22 -135.19 13.62 C-134.14 14.08 -133.08 14.53 -132 15 C-132 14.34 -132 13.68 -132 13 C-131.34 13 -130.68 13 -130 13 C-130.75 19.62 -130.75 19.62 -133 23 C-136.95 23.43 -139.61 23.08 -143 21 C-143.33 22.98 -143.66 24.96 -144 27 C-143.18 26.59 -142.35 26.18 -141.5 25.75 C-136.46 24.67 -134.38 26.43 -130 29 C-130 33.29 -130 37.58 -130 42 C-141.52 48.7 -141.52 48.7 -147.75 47.38 C-149.18 46.96 -150.6 46.51 -152 46 C-152 46.66 -152 47.32 -152 48 C-152.66 48 -153.32 48 -154 48 C-153.67 46.35 -153.34 44.7 -153 43 C-153.53 43.38 -154.06 43.77 -154.61 44.16 C-155.32 44.65 -156.02 45.13 -156.75 45.62 C-157.1 45.87 -157.1 45.87 -158.86 47.1 C-161 48 -161 48 -163.2 47.34 C-165 46 -165 46 -166 43 C-166.52 43.38 -167.04 43.77 -167.57 44.16 C-169.68 45.62 -171.69 46.91 -174 48 C-177.39 47.34 -178.58 46.42 -181 44 C-181.32 41.66 -181.32 41.66 -181.41 38.77 C-181.45 37.74 -181.49 36.71 -181.53 35.65 C-181.56 34.57 -181.59 33.49 -181.62 32.38 C-181.66 31.29 -181.7 30.2 -181.74 29.08 C-181.84 26.39 -181.92 23.69 -182 21 C-183.32 20.34 -184.64 19.68 -186 19 C-183.36 17.02 -180.72 15.04 -178 13 Z M-180 20 C-180 27.26 -180 34.52 -180 42 C-179.67 42 -179.34 42 -179 42 C-179 34.74 -179 27.48 -179 20 C-179.33 20 -179.66 20 -180 20 Z M-116 4 C-116 7.3 -116 10.6 -116 14 C-114.51 13.84 -114.51 13.84 -107 13 C-108.12 15.97 -109.22 18.33 -111 21 C-112.65 21 -114.3 21 -116 21 C-115.67 27.27 -115.34 33.54 -115 40 C-113.68 40.33 -112.36 40.66 -111 41 C-110.67 37.7 -110.34 34.4 -110 31 C-108.35 30.34 -106.7 29.68 -105 29 C-105.82 28.4 -106.65 27.8 -107.5 27.19 C-107.91 26.83 -107.91 26.83 -110 25 C-110 24.01 -110 23.02 -110 22 C-108.17 20.25 -108.17 20.25 -105.75 18.44 C-104.96 17.84 -104.17 17.24 -103.36 16.62 C-102.58 16.09 -101.8 15.55 -101 15 C-100.36 14.55 -99.72 14.1 -99.06 13.64 C-94.65 12.28 -89.81 16.09 -86 18 C-86.33 25.59 -86.66 33.18 -87 41 C-85.02 41 -83.04 41 -81 41 C-81.16 37.53 -81.16 37.53 -82 20 C-82.99 20 -83.98 20 -85 20 C-83.72 16.16 -82.21 15.51 -78.78 13.66 C-77 13 -77 13 -74.69 13.62 C-73 15 -73 15 -71 17 C-69.95 16.3 -68.9 15.6 -67.81 14.88 C-64.4 12.92 -64.4 12.92 -61.19 13.56 C-59 15 -59 15 -57 18 C-56.77 20.45 -56.77 20.45 -56.8 23.32 C-56.81 24.35 -56.82 25.38 -56.82 26.44 C-56.83 26.98 -56.83 26.98 -56.88 29.69 C-56.88 30.77 -56.89 31.85 -56.9 32.97 C-56.93 35.65 -56.96 38.32 -57 41 C-55.35 41 -53.7 41 -52 41 C-52 41.66 -52 42.32 -52 43 C-53.61 44.36 -53.61 44.36 -55.75 45.75 C-56.45 46.22 -57.14 46.69 -57.86 47.17 C-60 48 -60 48 -62.14 47.27 C-64 46 -64 46 -66 44 C-66.32 41.66 -66.32 41.66 -66.41 38.77 C-66.43 38.26 -66.43 38.26 -66.53 35.65 C-66.56 34.57 -66.59 33.49 -66.62 32.38 C-66.64 31.83 -66.64 31.83 -66.74 29.08 C-66.84 26.39 -66.92 23.69 -67 21 C-68.32 20.67 -69.64 20.34 -71 20 C-71 27.26 -71 34.52 -71 42 C-70.34 41.84 -70.34 41.84 -67 41 C-67 41.66 -67 42.32 -67 43 C-69.44 45.1 -72.06 46.71 -75 48 C-78.98 47.29 -80.08 45.92 -83 43 C-85.31 44.65 -87.62 46.3 -90 48 C-92.49 46.8 -94.68 45.55 -97 44 C-97.89 44.7 -98.77 45.4 -99.69 46.12 C-103 48 -103 48 -105.69 47.38 C-107.49 46.3 -109.25 45.16 -111 44 C-112.07 44.68 -113.15 45.36 -114.25 46.06 C-117.69 47.99 -117.69 47.99 -120.06 48.06 C-123.06 46.42 -125.44 44.27 -128 42 C-127.67 41.34 -127.34 40.68 -127 40 C-126.85 38.55 -126.75 37.1 -126.68 35.65 C-126.64 34.8 -126.6 33.95 -126.56 33.07 C-126.52 32.18 -126.48 31.29 -126.44 30.38 C-126.39 29.48 -126.35 28.58 -126.31 27.66 C-126.2 25.44 -126.1 23.22 -126 21 C-126.99 20.67 -127.98 20.34 -129 20 C-128.69 19.48 -128.38 18.97 -128.06 18.44 C-127 16 -127 16 -126.88 12.56 C-125.89 8.53 -125.4 8.18 -122.06 6.06 C-118.41 4 -118.41 4 -116 4 Z M-125 11 C-124 14 -124 14 -124 14 Z M-107 23 C-107 23.66 -107 24.32 -107 25 C-103.27 27.03 -101.33 28 -97 28 C-97 26.35 -97 24.7 -97 23 C-101.11 20.73 -102.89 20.26 -107 23 Z M-101 30 C-101 33.3 -101 36.6 -101 40 C-99.68 40.33 -98.36 40.66 -97 41 C-97 37.37 -97 33.74 -97 30 C-98.32 30 -99.64 30 -101 30 Z M-109 33 C-108 35 -108 35 -108 35 Z M-1 13 C3.88 15.75 3.88 15.75 5 18 C5.15 19.74 5.25 21.48 5.32 23.23 C5.34 23.74 5.34 23.74 5.44 26.35 C5.48 27.43 5.52 28.51 5.56 29.62 C5.61 30.71 5.65 31.8 5.69 32.92 C5.8 35.61 5.9 38.31 6 41 C7.32 41 8.64 41 10 41 C10 34.4 10 27.8 10 21 C8.68 20.34 7.36 19.68 6 19 C8.64 17.02 11.28 15.04 14 13 C18 15 18 15 21 17 C21.54 16.65 21.54 16.65 24.25 14.88 C26.19 13.77 26.19 13.77 28 13 C30.25 13.62 30.25 13.62 32 15 C32.99 15.66 33.98 16.32 35 17 C36.05 16.3 37.1 15.6 38.19 14.88 C41.6 12.92 41.6 12.92 44.81 13.56 C47 15 47 15 49 18 C49.23 20.45 49.23 20.45 49.2 23.32 C49.19 24.35 49.18 25.38 49.18 26.44 C49.16 27.51 49.14 28.58 49.12 29.69 C49.12 30.77 49.11 31.85 49.1 32.97 C49.07 35.65 49.04 38.32 49 41 C50.65 41 52.3 41 54 41 C50.87 44.39 48.43 46.61 44 48 C41.52 45.9 40.14 44.67 39.45 41.43 C39.43 40.49 39.41 39.55 39.39 38.58 C39.36 37.55 39.33 36.53 39.29 35.47 C39.28 34.41 39.26 33.35 39.25 32.25 C39.22 31.17 39.19 30.09 39.16 28.98 C39.09 26.32 39.04 23.66 39 21 C37.68 20.67 36.36 20.34 35 20 C35.33 26.93 35.66 33.86 36 41 C36.99 41 37.98 41 39 41 C37.64 45.09 35.77 46.04 32 48 C28.74 47.26 27.35 46.35 25 44 C24.68 41.66 24.68 41.66 24.59 38.77 C24.57 38.26 24.57 38.26 24.47 35.65 C24.44 34.57 24.41 33.49 24.38 32.38 C24.36 31.83 24.36 31.83 24.26 29.08 C24.16 26.39 24.08 23.69 24 21 C23.01 20.67 22.02 20.34 21 20 C21.11 23.46 21.24 26.92 21.38 30.38 C21.41 31.36 21.44 32.34 21.47 33.36 C21.51 34.3 21.55 35.24 21.59 36.21 C21.6 36.65 21.6 36.65 21.68 38.85 C22 41 22 41 24 43 C21.78 44.9 19.59 46.63 17 48 C14.31 47.44 14.31 47.44 12 46 C11.24 45.63 10.47 45.26 9.69 44.88 C9.13 44.59 8.57 44.3 8 44 C7.09 44.68 6.19 45.36 5.25 46.06 C2 48 2 48 -0.12 48 C-2.64 46.66 -4.17 45.19 -6 43 C-6.45 40.43 -6.45 40.43 -6.39 37.58 C-6.38 36.55 -6.36 35.53 -6.35 34.47 C-6.33 33.94 -6.33 33.94 -6.25 31.25 C-6.23 30.17 -6.21 29.09 -6.2 27.98 C-6.15 25.32 -6.08 22.66 -6 20 C-6.99 20 -7.98 20 -9 20 C-7.54 15.61 -5.02 15.12 -1 13 Z M69 13 C70.86 15.3 70.86 15.3 72.75 18.31 C73.38 19.3 74.02 20.28 74.67 21.3 C76 24 76 24 75 27 C72.5 28.61 72.5 28.61 69.44 30.19 C68.43 30.72 67.41 31.25 66.37 31.79 C65.59 32.19 64.81 32.59 64 33 C66.69 38.49 66.69 38.49 69 40 C72.69 39.69 72.69 39.69 76 39 C76 39.66 76 40.32 76 41 C73.52 42.8 73.52 42.8 70.25 44.75 C69.18 45.4 68.12 46.06 67.02 46.73 C64 48 64 48 62.04 47.26 C58.37 44.99 55.41 42.62 53 39 C52.18 35.3 52.33 31.82 52.56 28.06 C52.59 27.09 52.63 26.12 52.66 25.12 C52.74 22.75 52.85 20.37 53 18 C55.1 17.16 57.21 16.33 59.31 15.5 C60.48 15.04 61.66 14.57 62.86 14.09 C66 13 66 13 69 13 Z M63 23 C63 25.31 63 27.62 63 30 C64.32 29.34 65.64 28.68 67 28 C66.03 26.32 65.03 24.65 64 23 C63.67 23 63.34 23 63 23 Z M93 14 C93.99 14.33 94.98 14.66 96 15 C96 17.64 96 20.28 96 23 C89.25 22.12 89.25 22.12 87 21 C86.67 22.98 86.34 24.96 86 27 C86.91 26.63 87.81 26.26 88.75 25.88 C92 25 92 25 96 27 C96 32.28 96 37.56 96 43 C88.53 48.06 88.53 48.06 84.18 47.89 C81.73 47.37 79.37 46.78 77 46 C77 46.66 77 47.32 77 48 C76.34 48 75.68 48 75 48 C75.48 46.52 75.96 45.04 76.44 43.56 C76.7 42.74 76.97 41.92 77.25 41.07 C78 39 78 39 79 38 C81 38.09 81 38.09 83.44 38.38 C84.24 38.47 85.04 38.56 85.87 38.65 C88 39 88 39 90 40 C89.67 38.02 89.34 36.04 89 34 C88.13 34.23 87.27 34.45 86.38 34.69 C82.32 35.06 80.45 34.05 77 32 C77 27.71 77 23.42 77 19 C78.91 17.96 80.83 16.95 82.75 15.94 C83.82 15.37 84.88 14.8 85.98 14.21 C89.11 12.96 89.99 12.75 93 14 Z " fill="#000000" transform="translate(303,0)"/></svg>
