<svg xmlns="http://www.w3.org/2000/svg" viewBox="0 0 51.879 28.326" width="51.879" height="28.326" role="img" aria-label="NDTV Profit logo"><g fill="#000"><path d="M14.39.002h26.439l.039.071 3.95 7.473.043.079.032-.063 2.933-5.888.833-1.672h3.219L51.85.07q-2.547 5.06-5.094 10.121a.09.09 0 0 1-.095.057q-1.812 0-3.623 0a.1.1 0 0 1-.109-.065q-2.046-3.854-4.094-7.706c-.015-.039-.054-.063-.095-.059h-4.131v7.824h-2.993V2.423h-4.655c0 .022.008.037.012.053a6.18 6.18 0 0 1 .207 1.429l.011 1.448-.05 1.085a5.05 5.05 0 0 1-.4 1.57c-.334.812-.964 1.467-1.763 1.831a4.8 4.8 0 0 1-1.849.406l-.266.012h-8.477a.38.38 0 0 1-.011-.066q0-5.061 0-10.123a.37.37 0 0 1 .015-.066zm3.021 7.834h5.04a2.65 2.65 0 0 0 .67-.077 1.26 1.26 0 0 0 .948-.86c.063-.198.094-.404.092-.612V3.975a2.01 2.01 0 0 0-.027-.333 1.33 1.33 0 0 0-.829-1.067c-.276-.11-.571-.163-.868-.155h-4.959-.067v5.416zM10.351.002h3.12V.07v10.176h-3.242a3.79 3.79 0 0 1-1.8-.448A4.4 4.4 0 0 1 6.55 7.832l-.753-1.551-1.156-2.384a2.12 2.12 0 0 0-.321-.486 1.33 1.33 0 0 0-.639-.432.95.95 0 0 0-.357-.029v7.214c0 .03 0 .062-.006.092H.171c0-.027-.005-.053-.005-.08V.081c0-.027 0-.053.005-.08h3.257l.061.007.537.048a3.94 3.94 0 0 1 1.9.867A5 5 0 0 1 7.268 2.65l1.644 3.451a3.58 3.58 0 0 0 .363.627 1.5 1.5 0 0 0 .612.511.97.97 0 0 0 .464.067V.098c-.002-.03 0-.063 0-.096z"/><path d="M.171.002c0 .027-.005.053-.005.08v10.09a.43.43 0 0 0 .005.08c-.013-.012-.012-.039-.012-.056q0-5.072 0-10.143C.161.036.165.019.171.002z"/></g><path d="M14.06 7.017h-.236l-.274-.044c-.996-.239-1.616-1.233-1.392-2.232s1.208-1.634 2.211-1.425c.961.226 1.587 1.154 1.438 2.13-.118.762-.698 1.369-1.454 1.523l-.293.048z" fill="#000"/><path d="M3.508 22.931v5.178H0v-15.11h5.77a6.28 6.28 0 0 1 4.265 1.37c1.006.926 1.579 2.232 1.579 3.6s-.573 2.674-1.579 3.6a6.3 6.3 0 0 1-4.265 1.365H3.508zm0-2.7H5.77a2.3 2.3 0 0 0 1.743-.628c.408-.436.624-1.017.6-1.614.022-.607-.193-1.199-.6-1.65a2.27 2.27 0 0 0-1.748-.643H3.503z" fill="#000"/><path d="M19.552 19.869l-1.142-.01a1.94 1.94 0 0 0-.986.223 1.38 1.38 0 0 0-.571.628v7.4h-3.508V16.881h3.3l.125 1.65a3.38 3.38 0 0 1 .934-1.37 2.05 2.05 0 0 1 1.359-.488 2.6 2.6 0 0 1 .426.031 3.2 3.2 0 0 1 .394.094z" fill="#000"/><path d="M20.372 22.391c-.064-1.507.449-2.982 1.433-4.125a5.82 5.82 0 0 1 8 0c.984 1.143 1.496 2.618 1.432 4.125v.218a5.93 5.93 0 0 1-1.432 4.13c-2.247 2.116-5.753 2.116-8 0a5.93 5.93 0 0 1-1.433-4.13zm3.507.218a4.64 4.64 0 0 0 .441 2.215 1.57 1.57 0 0 0 1.5.8 1.55 1.55 0 0 0 1.474-.809c.329-.688.483-1.448.446-2.21v-.218a4.62 4.62 0 0 0-.446-2.195 1.56 1.56 0 0 0-1.494-.825 1.54 1.54 0 0 0-1.479.83c-.322.683-.473 1.434-.441 2.189z" fill="#000"/><path d="M33.158 28.11v-8.8h-1.629v-2.428h1.629v-.54a4.31 4.31 0 0 1 1.38-3.44 5.8 5.8 0 0 1 3.923-1.2 9.76 9.76 0 0 1 1.733.155q.861.156 1.92.446l-.477 2.76q-.893-.228-1.49-.343a8.05 8.05 0 0 0-1.479-.114 2.19 2.19 0 0 0-1.484.451 1.61 1.61 0 0 0-.519 1.281v.54h2.2v2.428h-2.2v8.8h-3.507zm10.564 0h-3.518V16.881h3.518z" fill="#000"/><path d="M49.896 14.089v2.79h1.774v2.428h-1.774v5.148a1.26 1.26 0 0 0 .244.866c.171.18.411.277.659.265.144.002.288-.005.431-.021s.275-.047.41-.083l.239 2.595c-.314.082-.633.146-.955.192-.334.041-.67.06-1.007.057-.967.069-1.92-.265-2.631-.924-.669-.821-.992-1.871-.9-2.926v-5.167h-1.567v-2.43h1.567v-2.79z" fill="#000"/></svg>
