<svg xmlns="http://www.w3.org/2000/svg" viewBox="0 0 145 54" width="145" height="54" role="img" aria-label="News18 logo"><path d="M0 0 C3.3 0 6.6 0 10 0 C10 7.92 10 15.84 10 24 C8.02 24 6.04 24 4 24 C4 18.06 4 12.12 4 6 C2.68 6 1.36 6 0 6 C0 4.02 0 2.04 0 0 Z M24 0 C26.44 1.62 26.44 1.62 28 4 C28.25 7.06 28.25 7.06 28 10 C28 10.99 28 11.98 28 13 C28.33 13.33 28.66 13.66 29 14 C29.39 17.5 29.44 19.35 27.44 22.31 C24.2 24.55 21.92 24.93 18 25 C15.05 23.65 13.46 22.91 12 20 C11.74 15.95 11.7 14.46 14 11 C13.67 10.67 13.34 10.34 13 10 C12.42 3.72 12.42 3.72 14.56 1.06 C17.95 -0.41 20.35 -0.46 24 0 Z M19 5 C19 6.32 19 7.64 19 9 C20.32 8.67 21.64 8.34 23 8 C22.67 7.01 22.34 6.02 22 5 C21.01 5 20.02 5 19 5 Z M19 14 C18.67 15.32 18.34 16.64 18 18 C19.32 18.33 20.64 18.66 22 19 C22.33 17.68 22.66 16.36 23 15 C21.68 14.67 20.36 14.34 19 14 Z M-5 -8 C8.53 -8 22.06 -8 36 -8 C36 5.2 36 18.4 36 32 C27.09 32 18.18 32 9 32 C9 36.62 9 41.24 9 46 C-29.94 46 -68.88 46 -109 46 C-109 32.47 -109 18.94 -109 5 C-74.68 5 -40.36 5 -5 5 C-5 0.71 -5 -3.58 -5 -8 Z M-4 -7 C-4 -2.71 -4 1.58 -4 6 C-38.32 6 -72.64 6 -108 6 C-108 18.87 -108 31.74 -108 45 C-69.72 45 -31.44 45 8 45 C8 40.71 8 36.42 8 32 C16.91 31.67 25.82 31.34 35 31 C35 18.46 35 5.92 35 -7 C22.13 -7 9.26 -7 -4 -7 Z M-100 13 C-98.02 13 -96.04 13 -94 13 C-91.88 15.62 -91.88 15.62 -90.12 19 C-89.53 20.11 -88.93 21.23 -88.32 22.38 C-88.1 22.81 -88.1 22.81 -87 25 C-86.67 21.04 -86.34 17.08 -86 13 C-84.35 13 -82.7 13 -81 13 C-81 20.92 -81 28.84 -81 37 C-82.65 37 -84.3 37 -86 37 C-87.73 35.17 -87.73 35.17 -89.19 32.75 C-89.68 31.96 -90.16 31.17 -90.67 30.36 C-91.84 28.28 -92.93 26.14 -94 24 C-94.33 28.29 -94.66 32.58 -95 37 C-96.65 37 -98.3 37 -100 37 C-100 29.08 -100 21.16 -100 13 Z M-77 13 C-71.39 13 -65.78 13 -60 13 C-60 14.65 -60 16.3 -60 18 C-61.81 18.16 -61.81 18.16 -71 19 C-71.33 19.99 -71.66 20.98 -72 22 C-68.37 22 -64.74 22 -61 22 C-61 23.65 -61 25.3 -61 27 C-64.63 27 -68.26 27 -72 27 C-71.67 28.32 -71.34 29.64 -71 31 C-67.04 31.33 -63.08 31.66 -59 32 C-59.33 33.65 -59.66 35.3 -60 37 C-62.81 37.03 -65.62 37.05 -68.44 37.06 C-69.24 37.07 -70.04 37.08 -70.87 37.09 C-72.91 37.1 -74.96 37.05 -77 37 C-78 36 -78 36 -78.13 33.92 C-78.11 26.89 -77.66 19.99 -77 13 Z M-58 13 C-56.02 13 -54.04 13 -52 13 C-51.01 15.97 -50.02 18.94 -49 22 C-48.67 22 -48.34 22 -48 22 C-47.34 19.03 -46.68 16.06 -46 13 C-44.02 13 -42.04 13 -40 13 C-38.53 16.43 -37.75 19.27 -37 23 C-35.68 19.7 -34.36 16.4 -33 13 C-31.35 13 -29.7 13 -28 13 C-28.64 18.53 -29.94 23.62 -31.56 28.94 C-31.8 29.72 -32.03 30.5 -32.27 31.3 C-32.84 33.2 -33.42 35.1 -34 37 C-35.65 37 -37.3 37 -39 37 C-40.49 33.38 -41.79 29.72 -43 26 C-43.13 26.71 -43.27 27.42 -43.4 28.15 C-43.49 28.61 -43.49 28.61 -43.94 30.94 C-44.11 31.85 -44.29 32.77 -44.46 33.71 C-45 36 -45 36 -46 37 C-47.67 37.04 -49.33 37.04 -51 37 C-54.44 29.77 -58 21.05 -58 13 Z M-13 13 C-10.2 14.91 -9.31 16.07 -8.25 19.25 C-8.21 19.54 -8.21 19.54 -8 21 C-9.98 21 -11.96 21 -14 21 C-14.33 20.34 -14.66 19.68 -15 19 C-18.06 18.38 -18.06 18.38 -21 18 C-21 18.99 -21 19.98 -21 21 C-20.4 21.11 -19.79 21.22 -19.17 21.33 C-10.31 23.09 -10.31 23.09 -8 26 C-7.25 31.98 -7.25 31.98 -9.38 34.88 C-13.37 37.64 -17.27 37.6 -22 37 C-25.06 35.25 -25.06 35.25 -27 33 C-27 31.68 -27 30.36 -27 29 C-24.62 28.88 -24.62 28.88 -22 29 C-21.34 29.66 -20.68 30.32 -20 31 C-16.88 31.12 -16.88 31.12 -14 31 C-13.67 30.34 -13.34 29.68 -13 29 C-13.76 28.82 -14.52 28.64 -15.3 28.45 C-16.29 28.2 -17.29 27.95 -18.31 27.69 C-19.3 27.44 -20.28 27.2 -21.3 26.95 C-24.04 25.99 -25.29 25.31 -27 23 C-27.52 19.51 -27.4 17.69 -25.62 14.62 C-21.57 12.12 -17.64 12.23 -13 13 Z " fill="#000000" transform="translate(109,8)"/><path d="M0 0 C3.3 0 6.6 0 10 0 C10 7.92 10 15.84 10 24 C8.02 24 6.04 24 4 24 C4 18.06 4 12.12 4 6 C2.68 6 1.36 6 0 6 C0 4.02 0 2.04 0 0 Z M24 0 C26.44 1.62 26.44 1.62 28 4 C28.25 7.06 28.25 7.06 28 10 C28 10.99 28 11.98 28 13 C28.33 13.33 28.66 13.66 29 14 C29.39 17.5 29.44 19.35 27.44 22.31 C24.2 24.55 21.92 24.93 18 25 C15.05 23.65 13.46 22.91 12 20 C11.74 15.95 11.7 14.46 14 11 C13.67 10.67 13.34 10.34 13 10 C12.42 3.72 12.42 3.72 14.56 1.06 C17.95 -0.41 20.35 -0.46 24 0 Z M19 5 C19 6.32 19 7.64 19 9 C20.32 8.67 21.64 8.34 23 8 C22.67 7.01 22.34 6.02 22 5 C21.01 5 20.02 5 19 5 Z M19 14 C18.67 15.32 18.34 16.64 18 18 C19.32 18.33 20.64 18.66 22 19 C22.33 17.68 22.66 16.36 23 15 C21.68 14.67 20.36 14.34 19 14 Z M-5 -8 C8.53 -8 22.06 -8 36 -8 C36 5.2 36 18.4 36 32 C27.09 32 18.18 32 9 32 C9 36.62 9 41.24 9 46 C-29.94 46 -68.88 46 -109 46 C-109 32.47 -109 18.94 -109 5 C-74.68 5 -40.36 5 -5 5 C-5 0.71 -5 -3.58 -5 -8 Z M-4 -7 C-4 -2.71 -4 1.58 -4 6 C-38.32 6 -72.64 6 -108 6 C-108 18.87 -108 31.74 -108 45 C-69.72 45 -31.44 45 8 45 C8 40.71 8 36.42 8 32 C16.91 31.67 25.82 31.34 35 31 C35 18.46 35 5.92 35 -7 C22.13 -7 9.26 -7 -4 -7 Z M-100 13 C-98.02 13 -96.04 13 -94 13 C-91.88 15.62 -91.88 15.62 -90.12 19 C-89.53 20.11 -88.93 21.23 -88.32 22.38 C-88.1 22.81 -88.1 22.81 -87 25 C-86.67 21.04 -86.34 17.08 -86 13 C-84.35 13 -82.7 13 -81 13 C-81 20.92 -81 28.84 -81 37 C-82.65 37 -84.3 37 -86 37 C-87.73 35.17 -87.73 35.17 -89.19 32.75 C-89.68 31.96 -90.16 31.17 -90.67 30.36 C-91.84 28.28 -92.93 26.14 -94 24 C-94.33 28.29 -94.66 32.58 -95 37 C-96.65 37 -98.3 37 -100 37 C-100 29.08 -100 21.16 -100 13 Z M-77 13 C-71.39 13 -65.78 13 -60 13 C-60 14.65 -60 16.3 -60 18 C-61.81 18.16 -61.81 18.16 -71 19 C-71.33 19.99 -71.66 20.98 -72 22 C-68.37 22 -64.74 22 -61 22 C-61 23.65 -61 25.3 -61 27 C-64.63 27 -68.26 27 -72 27 C-71.67 28.32 -71.34 29.64 -71 31 C-67.04 31.33 -63.08 31.66 -59 32 C-59.33 33.65 -59.66 35.3 -60 37 C-62.81 37.03 -65.62 37.05 -68.44 37.06 C-69.24 37.07 -70.04 37.08 -70.87 37.09 C-72.91 37.1 -74.96 37.05 -77 37 C-78 36 -78 36 -78.13 33.92 C-78.11 26.89 -77.66 19.99 -77 13 Z M-58 13 C-56.02 13 -54.04 13 -52 13 C-51.01 15.97 -50.02 18.94 -49 22 C-48.67 22 -48.34 22 -48 22 C-47.34 19.03 -46.68 16.06 -46 13 C-44.02 13 -42.04 13 -40 13 C-38.53 16.43 -37.75 19.27 -37 23 C-35.68 19.7 -34.36 16.4 -33 13 C-31.35 13 -29.7 13 -28 13 C-28.64 18.53 -29.94 23.62 -31.56 28.94 C-31.8 29.72 -32.03 30.5 -32.27 31.3 C-32.84 33.2 -33.42 35.1 -34 37 C-35.65 37 -37.3 37 -39 37 C-40.49 33.38 -41.79 29.72 -43 26 C-43.13 26.71 -43.27 27.42 -43.4 28.15 C-43.49 28.61 -43.49 28.61 -43.94 30.94 C-44.11 31.85 -44.29 32.77 -44.46 33.71 C-45 36 -45 36 -46 37 C-47.67 37.04 -49.33 37.04 -51 37 C-54.44 29.77 -58 21.05 -58 13 Z M-13 13 C-10.2 14.91 -9.31 16.07 -8.25 19.25 C-8.21 19.54 -8.21 19.54 -8 21 C-9.98 21 -11.96 21 -14 21 C-14.33 20.34 -14.66 19.68 -15 19 C-18.06 18.38 -18.06 18.38 -21 18 C-21 18.99 -21 19.98 -21 21 C-20.4 21.11 -19.79 21.22 -19.17 21.33 C-10.31 23.09 -10.31 23.09 -8 26 C-7.25 31.98 -7.25 31.98 -9.38 34.88 C-13.37 37.64 -17.27 37.6 -22 37 C-25.06 35.25 -25.06 35.25 -27 33 C-27 31.68 -27 30.36 -27 29 C-24.62 28.88 -24.62 28.88 -22 29 C-21.34 29.66 -20.68 30.32 -20 31 C-16.88 31.12 -16.88 31.12 -14 31 C-13.67 30.34 -13.34 29.68 -13 29 C-13.76 28.82 -14.52 28.64 -15.3 28.45 C-16.29 28.2 -17.29 27.95 -18.31 27.69 C-19.3 27.44 -20.28 27.2 -21.3 26.95 C-24.04 25.99 -25.29 25.31 -27 23 C-27.52 19.51 -27.4 17.69 -25.62 14.62 C-21.57 12.12 -17.64 12.23 -13 13 Z " fill="#000000" transform="translate(109,8)"/></svg>
